<svg width="17" height="16" viewBox="0 0 17 16" fill="none" xmlns="http://www.w3.org/2000/svg">
<path d="M10.7376 15.1345C11.7122 15.0389 12.6286 15.0297 13.487 15.107C14.3453 15.1843 15.1455 15.348 15.8875 15.5983L16.278 15.2078C15.8061 13.7235 15.6515 12.0068 15.8142 10.0579L15.07 9.31363C14.805 10.0322 14.598 10.6929 14.4487 11.2958C14.314 11.8842 14.23 12.4077 14.1967 12.8662L13.5459 13.517C13.1018 13.5358 12.5783 13.6198 11.9755 13.769C11.3871 13.9038 10.7264 14.1109 9.99332 14.3903L10.7376 15.1345ZM13.522 13.7535L14.4332 12.8423L1.82357 0.232692L0.912377 1.14389L13.522 13.7535Z" fill="black"/>
</svg>
