<svg width="8" height="21" viewBox="0 0 8 21" fill="none" xmlns="http://www.w3.org/2000/svg">
<path d="M-3.78436e-05 16.8515C0.756774 17.473 1.41131 18.1146 1.96358 18.7761C2.51585 19.4377 2.96584 20.1194 3.31357 20.821L3.86584 20.821C4.58174 19.4377 5.68627 18.1146 7.17944 16.8515L7.17944 15.799C6.48399 16.1198 5.87036 16.4406 5.33855 16.7613C4.82719 17.0821 4.39765 17.3928 4.04993 17.6936L3.12948 17.6936C2.80221 17.3928 2.37267 17.0821 1.84086 16.7613C1.3295 16.4406 0.715865 16.1198 -3.78897e-05 15.799L-3.78436e-05 16.8515ZM2.94539 17.8439L4.23401 17.8439L4.23401 0.0111925L2.94539 0.0111925L2.94539 17.8439Z" fill="black"/>
</svg>
