<svg width="20" height="12" viewBox="0 0 20 12" fill="none" xmlns="http://www.w3.org/2000/svg">
<path d="M17.5386 7.36103C17.8232 6.42399 18.1654 5.57377 18.5653 4.81036C18.9652 4.04696 19.4227 3.37036 19.9379 2.78059L19.7266 2.27036C18.1746 2.13832 16.5294 1.62422 14.7911 0.72805L13.8187 1.13083C14.3812 1.65059 14.9124 2.09476 15.4123 2.46334C15.9043 2.81302 16.3558 3.09095 16.7667 3.29712L17.1189 4.1475C16.9663 4.56494 16.8436 5.0807 16.7508 5.69479C16.6501 6.28997 16.5886 6.97965 16.5662 7.76381L17.5386 7.36103ZM17.3283 4.26004L16.8352 3.0695L0.359866 9.89379L0.853002 11.0843L17.3283 4.26004Z" fill="black"/>
</svg>
