<svg width="22" height="8" viewBox="0 0 22 8" fill="none" xmlns="http://www.w3.org/2000/svg">
<path d="M17.5305 7.50004C18.152 6.74323 18.7935 6.08869 19.4551 5.53642C20.1167 4.98415 20.7983 4.53416 21.5 4.18643L21.5 3.63416C20.1167 2.91826 18.7935 1.81373 17.5305 0.320557L16.478 0.320557C16.7987 1.01601 17.1195 1.62964 17.4403 2.16145C17.761 2.67281 18.0718 3.10235 18.3725 3.45007L18.3725 4.37052C18.0718 4.69779 17.761 5.12733 17.4403 5.65914C17.1195 6.1705 16.7987 6.78414 16.478 7.50004L17.5305 7.50004ZM18.5229 4.55461L18.5229 3.26599L0.690148 3.26599L0.690148 4.55461L18.5229 4.55461Z" fill="black"/>
</svg>
