<svg width="11" height="21" viewBox="0 0 11 21" fill="none" xmlns="http://www.w3.org/2000/svg">
<path d="M4.13849 17.8594C5.07552 18.144 5.92574 18.4862 6.68915 18.8861C7.45256 19.286 8.12915 19.7435 8.71892 20.2587L9.22915 20.0474C9.36119 18.4954 9.87529 16.8502 10.7715 15.1119L10.3687 14.1395C9.84892 14.702 9.40475 15.2332 9.03617 15.7331C8.68649 16.2251 8.40857 16.6766 8.20239 17.0875L7.35201 17.4397C6.93457 17.2871 6.41881 17.1644 5.80473 17.0716C5.20954 16.9709 4.51986 16.9094 3.7357 16.887L4.13849 17.8594ZM7.23947 17.6491L8.43001 17.156L1.60572 0.680667L0.415186 1.1738L7.23947 17.6491Z" fill="black"/>
</svg>
