<svg width="20" height="12" viewBox="0 0 20 12" fill="none" xmlns="http://www.w3.org/2000/svg">
<path d="M14.7912 11.0922C15.655 10.6308 16.4982 10.2716 17.3208 10.0146C18.1434 9.7575 18.9453 9.60261 19.7266 9.54987L19.938 9.03964C18.9339 7.84887 18.1342 6.32205 17.5387 4.45921L16.5663 4.05642C16.5965 4.82169 16.658 5.51136 16.7509 6.12544C16.8515 6.72063 16.9743 7.23639 17.119 7.67273L16.7668 8.52311C16.3637 8.71039 15.9122 8.98832 15.4124 9.35689C14.9203 9.70658 14.3892 10.1507 13.8188 10.6894L14.7912 11.0922ZM16.8352 8.75073L17.3284 7.56019L0.853092 0.735907L0.359957 1.92644L16.8352 8.75073Z" fill="black"/>
</svg>
