<svg width="11" height="21" viewBox="0 0 11 21" fill="none" xmlns="http://www.w3.org/2000/svg">
<path d="M10.7719 5.70876C10.3105 4.84496 9.95129 4.00178 9.69424 3.17921C9.43719 2.35664 9.28229 1.55469 9.22956 0.773351L8.71933 0.562008C7.52855 1.56606 6.00174 2.36582 4.13889 2.96129L3.73611 3.9337C4.50137 3.90348 5.19105 3.84196 5.80513 3.74912C6.40032 3.64846 6.91608 3.52575 7.35242 3.38099L8.2028 3.73323C8.39008 4.1363 8.668 4.58776 9.03658 5.08763C9.38626 5.57967 9.83043 6.11085 10.3691 6.68116L10.7719 5.70876ZM8.43041 3.66476L7.23988 3.17162L0.415595 19.6469L1.60613 20.14L8.43041 3.66476Z" fill="black"/>
</svg>
