<svg width="17" height="16" viewBox="0 0 17 16" fill="none" xmlns="http://www.w3.org/2000/svg">
<path d="M15.8142 5.76268C15.7185 4.78807 15.7093 3.87161 15.7866 3.01328C15.8639 2.15496 16.0277 1.35478 16.278 0.612736L15.8875 0.222224C14.4031 0.694155 12.6865 0.848753 10.7376 0.686018L9.99332 1.43026C10.7119 1.6952 11.3726 1.90229 11.9755 2.05152C12.5639 2.18629 13.0873 2.27029 13.5459 2.30352L14.1967 2.95438C14.2155 3.39843 14.2995 3.92189 14.4487 4.52476C14.5835 5.11316 14.7906 5.77388 15.07 6.50692L15.8142 5.76268ZM14.4332 2.97823L13.522 2.06703L0.91238 14.6767L1.82358 15.5879L14.4332 2.97823Z" fill="black"/>
</svg>
