<svg width="8" height="21" viewBox="0 0 8 21" fill="none" xmlns="http://www.w3.org/2000/svg">
<path d="M7.17948 3.96951C6.42267 3.34802 5.76813 2.70648 5.21586 2.0449C4.66359 1.38331 4.2136 0.701681 3.86587 -1.68983e-07L3.31361 -1.44842e-07C2.5977 1.38331 1.49317 2.70648 1.73513e-07 3.96951L2.1952e-07 5.02203C0.695449 4.70126 1.30908 4.38049 1.84089 4.05973C2.35225 3.73896 2.78179 3.42821 3.12952 3.12749L4.04996 3.12749C4.37723 3.42821 4.80677 3.73896 5.33859 4.05973C5.84995 4.38049 6.46358 4.70126 7.17948 5.02203L7.17948 3.96951ZM4.23405 2.97713L2.94543 2.97713L2.94543 20.8099L4.23405 20.8099L4.23405 2.97713Z" fill="black"/>
</svg>
